<!DOCTYPE svg PUBLIC "-//W3C//DTD SVG 1.1//EN" "http://www.w3.org/Graphics/SVG/1.1/DTD/svg11.dtd">
<!-- Uploaded to: SVG Repo, www.svgrepo.com, Transformed by: SVG Repo Mixer Tools -->
<svg fill="#ffffff" width="800px" height="800px" viewBox="-7 0 32 32" version="1.1" xmlns="http://www.w3.org/2000/svg">
<g id="SVGRepo_bgCarrier" stroke-width="0"/>
<g id="SVGRepo_tracerCarrier" stroke-linecap="round" stroke-linejoin="round"/>
<g id="SVGRepo_iconCarrier"> <title>three</title> <path d="M4.875 8h-2.25c0.063-3.281 2.781-6 6.094-6s6.031 2.719 6.031 6.094c0 1.969-0.969 3.719-2.438 4.813 2.094 1.25 3.5 3.531 3.5 6.125 0 3.938-3.188 7.094-7.094 7.094-3.844 0-6.969-3-7.125-6.781h2.25c0.156 2.531 2.281 4.594 4.875 4.594 2.688 0 4.844-2.219 4.844-4.906s-2.156-4.875-4.844-4.875v-2.219c2.125 0 3.813-1.719 3.813-3.844s-1.688-3.844-3.813-3.844-3.813 1.656-3.844 3.75z"/> </g>
</svg>