<!DOCTYPE svg PUBLIC "-//W3C//DTD SVG 1.1//EN" "http://www.w3.org/Graphics/SVG/1.1/DTD/svg11.dtd">
<!-- Uploaded to: SVG Repo, www.svgrepo.com, Transformed by: SVG Repo Mixer Tools -->
<svg fill="#ffffff" height="800px" width="800px" version="1.1" id="Capa_1" xmlns="http://www.w3.org/2000/svg" xmlns:xlink="http://www.w3.org/1999/xlink" viewBox="0 0 213.195 213.195" xml:space="preserve">
<g id="SVGRepo_bgCarrier" stroke-width="0"/>
<g id="SVGRepo_tracerCarrier" stroke-linecap="round" stroke-linejoin="round"/>
<g id="SVGRepo_iconCarrier"> <path d="M210.856,203.383l-25.689-79.277c-1.002-3.093-3.884-5.188-7.135-5.188h-18.135c8.12-14.714,13.953-32.089,13.953-51.658 C173.85,30.173,143.68,0,106.596,0c-37.081,0-67.25,30.173-67.25,67.26c0,19.569,5.833,36.944,13.952,51.658H35.164 c-3.252,0-6.132,2.095-7.135,5.188L2.34,203.383c-0.74,2.283-0.342,4.782,1.069,6.723c1.411,1.941,3.666,3.089,6.066,3.089h194.246 c2.4,0,4.654-1.148,6.066-3.089C211.198,208.165,211.595,205.666,210.856,203.383z M106.596,15c28.813,0,52.254,23.444,52.254,52.26 c0,46.04-39.284,79.696-52.262,89.557C93.6,146.983,54.346,113.433,54.346,67.26C54.346,38.444,77.785,15,106.596,15z M19.789,198.195l20.829-64.277h22.295c17.32,23.623,38.092,37.444,39.58,38.417c1.247,0.815,2.675,1.222,4.104,1.222 c1.429,0,2.857-0.407,4.104-1.222c1.486-0.972,22.261-14.794,39.582-38.417h22.297l20.828,64.277H19.789z"/> </g>
</svg>