<svg xmlns="http://www.w3.org/2000/svg" width="200" height="70" viewBox="0 0 200 70" version="1.1"><path d="M 140 11.449 L 140 19.898 136.532 18.449 C 127.863 14.827, 118.384 19.379, 115.844 28.384 L 114.684 32.500 114.015 29.479 C 112.281 21.644, 106.222 17.540, 96.500 17.615 C 87.012 17.689, 80.292 22.407, 79.316 29.682 C 78.856 33.109, 78.311 33.760, 74.637 35.280 C 72.350 36.226, 67.944 37, 64.845 37 C 60.009 37, 58.772 36.590, 56.106 34.099 C 53.484 31.650, 53 30.466, 53 26.500 C 53 22.534, 53.484 21.350, 56.106 18.901 C 58.848 16.339, 59.930 16.004, 65.356 16.035 C 68.784 16.055, 72.605 16.703, 74 17.500 C 77.779 19.661, 78 19.437, 78 13.449 C 78 8.060, 77.899 7.856, 74.532 6.449 C 69.523 4.356, 57.468 4.597, 52.500 6.890 C 44.841 10.425, 40.985 17.086, 41.022 26.718 C 41.076 40.953, 50.236 48.746, 65.765 47.768 C 76.188 47.111, 79 45.714, 79 41.192 L 79 37.704 81.250 41.001 C 84.477 45.728, 89.352 48, 96.267 48 C 106.129 48, 112.188 44.009, 113.777 36.467 L 114.613 32.500 115.796 37.153 C 117.053 42.093, 121.170 46.503, 125.554 47.603 C 126.874 47.934, 130.101 47.937, 132.727 47.609 C 135.352 47.281, 140.537 47.040, 144.250 47.073 L 151 47.133 151 25.067 L 151 3 145.500 3 L 140 3 140 11.449 M 164 18.127 C 156.794 20.275, 153.581 25.529, 154.204 34.147 C 154.905 43.836, 160.616 48.078, 172.718 47.900 C 183.229 47.746, 184.500 47.159, 184.500 42.455 C 184.500 39.055, 184.219 38.547, 182.500 38.835 C 177.096 39.739, 168.004 39.399, 166.852 38.250 C 165.850 37.250, 167.739 37, 176.300 37 L 187 37 187 32.734 C 187 27.482, 184.222 22.055, 180.387 19.812 C 176.667 17.636, 168.473 16.794, 164 18.127 M 19.250 22.437 C 17.462 23.243, 16 23.475, 16 22.952 C 16 22.428, 13.525 22, 10.500 22 L 5 22 5 43 L 5 64 11 64 L 17 64 17 57.634 L 17 51.267 23.750 51.697 C 29.286 52.050, 31.075 51.764, 33.696 50.111 C 37.962 47.420, 39.859 44.311, 40.619 38.760 C 41.403 33.041, 38.487 26.310, 34.104 23.720 C 29.922 21.250, 23.172 20.667, 19.250 22.437 M 166.441 27.468 C 164.654 28.820, 164.916 28.939, 169.750 28.968 C 174.844 28.999, 176.640 27.843, 173.418 26.607 C 170.840 25.618, 168.507 25.906, 166.441 27.468 M 92.571 28.571 C 89.029 32.114, 91.998 39, 97.068 39 C 99.475 39, 102.250 35.445, 102.250 32.361 C 102.250 27.636, 95.967 25.176, 92.571 28.571 M 128.440 29.451 C 125.857 33.394, 128.767 39, 133.397 39 C 135.993 39, 140 35.168, 140 32.686 C 140 27.471, 131.328 25.044, 128.440 29.451 M 18.750 32.080 C 16.125 33.609, 16.421 39.481, 19.223 41.443 C 22.291 43.593, 24.281 43.395, 26.826 40.686 C 29.404 37.941, 29.546 36.224, 27.443 33.223 C 25.773 30.838, 21.783 30.313, 18.750 32.080 M 189.110 41.186 C 187.748 44.795, 189.529 47.175, 193.316 46.808 C 196.229 46.526, 196.500 46.202, 196.500 43 C 196.500 39.780, 196.239 39.475, 193.241 39.186 C 190.601 38.932, 189.817 39.311, 189.110 41.186" stroke="none" fill="#fffcfc" fill-rule="evenodd"/><path d="" stroke="none" fill="#fcfcfc" fill-rule="evenodd"/></svg>