<?xml version="1.0" standalone="no"?>
<!DOCTYPE svg PUBLIC "-//W3C//DTD SVG 20010904//EN"
 "http://www.w3.org/TR/2001/REC-SVG-20010904/DTD/svg10.dtd">
<svg version="1.0" xmlns="http://www.w3.org/2000/svg"
 width="265.000000pt" height="265.000000pt" viewBox="0 0 265.000000 265.000000"
 preserveAspectRatio="xMidYMid meet">
<metadata>
Created by potrace 1.14, written by Peter Selinger 2001-2017
</metadata>
<g transform="translate(0.000000,265.000000) scale(0.100000,-0.100000)"
fill="#000000" stroke="none">
<path d="M215 1758 c0 -95 -3 -198 -7 -228 -4 -30 -10 -82 -13 -115 -4 -33 -8
-73 -10 -88 -3 -27 -2 -28 23 -22 101 26 270 56 326 59 8 1 56 108 56 124 0 4
-160 -14 -212 -24 -26 -5 -27 -5 -16 28 63 200 72 370 22 427 -3 3 -41 6 -87
8 l-82 4 0 -173z"/>
<path d="M1505 1822 c0 -57 -5 -76 -32 -124 l-32 -57 30 -6 c25 -6 36 -2 60
21 36 34 77 117 79 159 4 71 4 71 -52 73 l-53 1 0 -67z"/>
<path d="M1239 1803 c-11 -3 -18 -18 -21 -46 -7 -62 -31 -104 -103 -182 -77
-84 -101 -128 -89 -163 18 -50 76 -76 163 -74 55 2 65 11 56 51 -6 29 -10 31
-48 31 -84 0 -87 32 -10 122 l48 57 61 -6 61 -5 23 36 c12 21 21 39 19 40 -4
4 -73 15 -96 16 -8 0 -8 11 1 43 7 23 11 48 10 55 -1 6 -2 16 -3 21 -1 9 -39
11 -72 4z"/>
<path d="M855 1726 c-85 -39 -189 -168 -196 -241 -8 -96 73 -145 187 -113 41
11 48 17 49 39 1 14 5 34 8 43 6 14 0 16 -40 13 -25 -3 -55 -2 -65 1 -25 6
-39 41 -26 65 8 16 17 18 61 12 56 -8 78 -12 117 -20 20 -4 33 2 62 32 76 78
79 140 8 175 -48 24 -105 22 -165 -6z m112 -72 c11 -29 -11 -49 -53 -48 -66 2
-74 4 -74 14 0 16 62 50 93 50 16 0 30 -7 34 -16z"/>
<path d="M1731 1688 c-130 -22 -256 -143 -206 -198 16 -17 32 -22 120 -36 22
-3 49 -11 59 -16 19 -11 19 -11 0 -25 -21 -15 -161 -17 -201 -2 -24 9 -37 -2
-46 -42 -6 -24 -3 -26 40 -36 26 -6 88 -11 138 -11 168 0 275 55 261 136 -3
19 -10 40 -17 48 -15 18 -68 31 -147 37 -77 6 -94 18 -59 42 21 14 66 20 169
24 9 1 21 13 26 29 5 15 13 35 17 45 6 15 1 17 -53 15 -33 -2 -78 -6 -101 -10z"/>
<path d="M2337 1426 c-70 -13 -80 -27 -98 -132 l-11 -72 -32 9 c-98 28 -233
-19 -250 -86 -15 -58 42 -166 138 -265 85 -88 151 -116 286 -122 l65 -3 -1 35
c0 19 -5 82 -10 140 -11 132 -12 388 -1 458 9 59 13 58 -86 38z m-132 -291
c29 -5 31 -8 53 -108 13 -56 26 -112 29 -125 5 -22 3 -23 -31 -18 -73 12 -124
54 -167 138 -38 74 -9 133 60 122 14 -2 40 -6 56 -9z"/>
<path d="M1332 1333 c-19 -7 -42 -58 -42 -93 0 -37 31 -70 66 -70 19 0 28 8
40 35 36 87 3 155 -64 128z"/>
<path d="M882 1271 c-6 -3 -9 -20 -7 -36 17 -116 27 -217 32 -325 3 -69 6
-126 7 -127 0 -1 39 -3 85 -4 83 -3 85 -3 91 21 7 25 4 98 -5 136 -5 21 -2 21
108 19 61 -1 115 0 119 2 10 5 -24 71 -39 77 -7 3 -54 6 -106 7 -52 1 -100 5
-106 9 -7 4 -18 27 -26 53 l-14 46 116 -6 116 -6 -7 34 c-13 71 -15 82 -18 84
-2 2 -68 5 -148 8 -80 3 -154 8 -166 10 -11 3 -26 2 -32 -2z"/>
<path d="M1655 1184 c-43 -10 -122 -38 -132 -46 -16 -13 -7 -31 62 -123 65
-88 83 -122 91 -174 l7 -42 44 5 c25 2 47 6 49 9 3 3 0 25 -6 48 -12 47 -50
110 -105 181 -37 46 -33 58 21 58 21 0 39 -9 61 -32 50 -54 96 -129 118 -193
20 -59 21 -59 62 -62 23 -1 44 1 47 5 9 15 -31 112 -80 192 -48 80 -87 128
-130 156 -19 13 -85 24 -109 18z"/>
<path d="M1358 1123 c-16 -2 -28 -8 -28 -13 0 -4 29 -56 65 -115 36 -59 66
-115 66 -124 1 -9 2 -29 3 -46 1 -39 7 -42 63 -35 l48 5 -3 45 c-2 24 -13 61
-25 82 -49 83 -140 208 -150 207 -7 -1 -24 -4 -39 -6z"/>
</g>
</svg>
